<?xml version="1.0" encoding="UTF-8" ?>
<!DOCTYPE svg PUBLIC "-//W3C//DTD SVG 1.1//EN" "http://www.w3.org/Graphics/SVG/1.1/DTD/svg11.dtd">
<svg width="420pt" height="420pt" viewBox="0 0 420 420" version="1.1" xmlns="http://www.w3.org/2000/svg">
<g id="#000000ff">
<path fill="#de400b" opacity="1.00" d=" M 81.87 27.77 C 90.77 22.81 100.50 18.49 110.87 18.37 C 116.24 19.43 121.92 20.16 126.48 23.46 C 136.39 29.34 141.85 39.86 147.68 49.36 C 154.02 62.17 159.82 75.57 161.44 89.91 C 161.92 92.68 160.92 95.53 161.76 98.23 C 160.35 110.46 151.31 120.02 141.27 126.26 C 136.41 129.48 131.26 132.28 126.53 135.69 C 122.02 138.96 121.23 144.94 120.71 150.08 C 120.77 156.30 121.92 162.60 124.40 168.34 C 124.36 168.64 124.27 169.26 124.22 169.57 C 129.82 184.39 136.91 198.60 144.70 212.36 C 147.74 216.77 150.26 221.49 152.74 226.22 C 157.79 234.28 162.65 242.48 168.50 249.99 C 174.89 260.20 182.22 269.76 189.81 279.11 C 198.16 288.76 206.86 298.59 218.29 304.68 C 222.39 305.55 226.54 307.50 230.81 306.56 C 234.18 305.96 236.85 303.68 239.71 301.98 C 246.15 298.02 252.27 293.44 259.39 290.72 C 261.17 290.25 262.89 289.56 264.56 288.78 C 265.20 288.79 265.84 288.79 266.48 288.80 C 272.36 287.55 279.18 287.46 284.46 290.69 C 291.84 293.18 297.62 298.65 303.46 303.57 C 312.42 312.31 320.88 321.77 327.23 332.61 C 333.49 341.95 337.95 353.79 334.62 365.01 C 333.59 372.06 328.57 377.56 323.95 382.62 C 313.28 392.49 300.49 399.68 287.84 406.70 C 279.03 411.58 268.67 409.49 259.19 408.58 C 254.89 407.07 250.72 405.11 246.12 404.65 C 245.77 404.31 245.07 403.63 244.72 403.29 C 238.59 401.60 232.77 398.70 227.35 395.40 C 214.29 388.81 202.29 380.17 190.99 370.90 C 186.17 366.77 180.90 363.13 176.58 358.46 C 173.15 355.91 170.26 352.74 167.20 349.78 C 147.34 330.40 129.90 308.66 114.01 286.00 C 109.18 277.92 103.61 270.30 98.91 262.14 C 95.71 256.70 91.76 251.68 89.22 245.87 C 75.17 221.46 63.95 195.45 54.92 168.78 C 54.89 168.45 54.82 167.79 54.79 167.45 C 53.56 164.19 52.59 160.84 51.64 157.48 C 50.43 153.18 49.45 148.83 48.41 144.48 C 47.03 139.89 46.41 135.13 45.42 130.46 C 42.96 116.51 41.44 102.34 42.10 88.16 C 42.08 86.61 42.48 85.11 42.85 83.62 C 42.64 83.23 42.23 82.44 42.02 82.05 C 44.52 72.83 45.05 62.99 49.51 54.39 C 51.57 51.27 53.22 47.77 56.07 45.26 C 64.08 38.60 73.19 33.47 81.87 27.77 Z" />
<path fill="#de400b" opacity="1.00" d=" M 260.49 74.65 C 284.26 64.91 311.68 64.48 335.79 73.31 C 352.67 79.64 368.40 91.00 376.84 107.27 C 383.96 120.34 384.78 136.56 379.27 150.35 C 374.46 162.31 365.60 172.35 355.00 179.55 C 335.13 193.16 310.02 197.91 286.32 194.90 C 272.52 208.73 252.44 213.56 233.56 215.01 C 241.74 206.02 248.15 195.13 250.30 183.05 C 236.79 175.14 224.92 163.34 219.71 148.32 C 214.93 134.69 216.19 119.00 223.29 106.40 C 231.33 91.77 245.24 81.00 260.49 74.65 M 257.30 119.16 C 252.70 120.45 248.93 124.49 248.07 129.20 C 246.46 136.81 253.31 144.45 260.98 144.08 C 269.06 144.42 276.16 135.61 273.38 127.84 C 271.47 121.13 263.94 117.32 257.30 119.16 M 296.27 119.18 C 290.05 120.80 285.67 127.49 287.12 133.84 C 288.44 141.60 297.80 146.46 304.92 143.06 C 311.69 140.61 314.99 131.82 311.40 125.54 C 308.70 120.08 302.01 117.69 296.27 119.18 M 335.27 119.19 C 331.96 120.15 328.90 122.28 327.37 125.43 C 324.03 131.02 326.27 139.00 331.93 142.15 C 336.89 145.33 344.01 144.61 348.07 140.25 C 353.24 135.56 352.88 126.53 347.62 122.04 C 344.35 118.99 339.52 118.22 335.27 119.19 Z" />
</g>
</svg>
