<?xml version="1.0" encoding="UTF-8" ?>
<!DOCTYPE svg PUBLIC "-//W3C//DTD SVG 1.1//EN" "http://www.w3.org/Graphics/SVG/1.1/DTD/svg11.dtd">
<svg width="271pt" height="69pt" viewBox="0 0 271 69" version="1.1" xmlns="http://www.w3.org/2000/svg">
<g id="#18191bff">
<path fill="#18191b" opacity="1.00" d=" M 27.49 2.77 C 41.44 -0.53 57.16 6.75 63.39 19.73 C 68.85 29.92 68.00 42.99 61.50 52.52 C 52.75 66.42 32.61 71.29 18.53 62.72 C 4.15 55.17 -2.19 35.76 4.92 21.16 C 8.90 11.81 17.67 5.01 27.49 2.77 M 24.14 16.85 C 26.78 16.85 29.42 16.84 32.05 16.85 C 32.05 13.46 32.06 10.07 32.02 6.69 C 27.27 7.68 26.53 13.37 24.14 16.85 M 37.19 6.50 C 36.88 9.93 36.93 13.39 36.94 16.83 C 39.35 16.84 41.76 16.86 44.17 16.90 C 42.19 13.23 40.77 8.97 37.19 6.50 M 13.08 16.85 C 15.11 16.85 17.15 16.84 19.18 16.84 C 20.25 14.14 21.46 11.50 22.83 8.93 C 19.40 11.35 15.96 13.78 13.08 16.85 M 46.03 9.49 C 46.98 12.00 48.11 14.43 49.21 16.87 C 51.45 16.85 53.68 16.85 55.92 16.86 C 53.03 13.91 49.90 11.11 46.03 9.49 M 9.92 21.70 C 8.40 24.98 7.41 28.47 6.95 32.05 C 10.00 32.06 13.06 32.06 16.12 32.06 C 16.40 28.56 16.94 25.08 17.68 21.65 C 15.09 21.69 12.51 21.72 9.92 21.70 M 22.58 21.66 C 21.85 25.09 21.32 28.56 20.98 32.05 C 24.67 32.06 28.36 32.06 32.05 32.06 C 32.05 28.61 32.05 25.16 32.06 21.71 C 28.90 21.71 25.74 21.71 22.58 21.66 M 36.94 21.71 C 36.95 25.16 36.95 28.61 36.95 32.06 C 40.41 32.06 43.86 32.05 47.32 32.06 C 47.01 28.56 46.46 25.09 45.72 21.66 C 42.80 21.70 39.87 21.72 36.94 21.71 M 50.54 21.61 C 51.45 25.02 51.88 28.54 52.13 32.06 C 55.44 32.06 58.75 32.06 62.06 32.05 C 61.58 28.47 60.60 24.98 59.08 21.71 C 56.23 21.72 53.38 21.70 50.54 21.61 M 6.93 36.95 C 7.45 40.50 8.41 43.96 9.86 47.24 C 12.46 47.23 15.06 47.24 17.66 47.28 C 16.93 43.86 16.40 40.42 16.12 36.94 C 13.06 36.94 9.99 36.94 6.93 36.95 M 20.98 36.95 C 21.32 40.42 21.84 43.87 22.58 47.29 C 25.74 47.23 28.90 47.22 32.06 47.23 C 32.05 43.80 32.05 40.37 32.05 36.94 C 28.36 36.94 24.67 36.94 20.98 36.95 M 36.95 36.94 C 36.95 40.37 36.95 43.80 36.94 47.23 C 39.86 47.22 42.79 47.24 45.71 47.27 C 46.48 43.87 47.01 40.41 47.32 36.94 C 43.86 36.95 40.40 36.94 36.95 36.94 M 52.14 36.94 C 51.88 40.43 51.44 43.91 50.60 47.30 C 53.44 47.24 56.29 47.21 59.14 47.24 C 60.59 43.96 61.55 40.50 62.06 36.95 C 58.75 36.94 55.44 36.94 52.14 36.94 M 13.08 52.09 C 15.94 55.21 19.39 57.66 22.84 60.08 C 21.45 57.48 20.23 54.80 19.12 52.08 C 17.11 52.08 15.10 52.08 13.08 52.09 M 24.13 52.09 C 26.44 55.65 27.38 61.18 32.02 62.29 C 32.06 58.88 32.05 55.48 32.05 52.07 C 29.41 52.07 26.77 52.08 24.13 52.09 M 36.95 52.08 C 36.93 55.54 36.90 59.00 37.14 62.46 C 40.80 60.08 42.20 55.73 44.17 52.06 C 41.76 52.07 39.35 52.08 36.95 52.08 M 49.23 52.04 C 48.15 54.51 47.01 56.97 46.05 59.49 C 49.93 57.89 53.07 55.09 55.92 52.09 C 53.69 52.08 51.46 52.07 49.23 52.04 Z" />
<path fill="#18191b" opacity="1.00" d=" M 182.23 9.00 C 188.41 9.00 194.59 9.00 200.77 9.00 C 200.77 11.26 200.76 13.51 200.76 15.76 C 197.43 15.77 194.10 15.77 190.77 15.77 C 190.77 17.34 190.77 18.92 190.76 20.50 C 193.82 20.49 196.88 20.50 199.93 20.44 C 199.98 22.73 199.99 25.01 200.02 27.30 C 196.94 27.30 193.85 27.30 190.76 27.29 C 190.76 29.27 190.77 31.25 190.77 33.23 C 194.10 33.23 197.43 33.23 200.76 33.24 C 200.76 35.49 200.77 37.74 200.77 40.00 C 194.59 40.00 188.41 40.00 182.23 40.00 C 182.24 29.67 182.23 19.33 182.23 9.00 Z" />
<path fill="#18191b" opacity="1.00" d=" M 207.23 9.00 C 213.41 9.00 219.59 9.00 225.77 9.00 C 225.77 11.26 225.76 13.51 225.76 15.76 C 222.43 15.77 219.10 15.77 215.77 15.77 C 215.77 17.34 215.77 18.92 215.77 20.49 C 218.84 20.49 221.91 20.49 224.99 20.48 C 225.00 22.75 225.00 25.02 225.00 27.29 C 221.91 27.30 218.81 27.29 215.72 27.35 C 215.75 29.31 215.77 31.27 215.79 33.23 C 219.11 33.23 222.43 33.23 225.76 33.24 C 225.76 35.49 225.77 37.74 225.77 40.00 C 219.59 40.00 213.41 40.00 207.23 40.00 C 207.23 29.67 207.24 19.33 207.23 9.00 Z" />
</g>
<g id="#18191bff">
<path fill="#18191b" opacity="1.00" d=" M 85.26 9.00 C 88.91 9.00 92.56 9.00 96.21 9.00 C 99.98 16.26 103.67 23.56 107.62 30.73 C 106.96 23.50 107.38 16.24 107.26 9.00 C 109.75 9.00 112.24 9.00 114.73 9.00 C 114.73 19.33 114.73 29.67 114.74 40.00 C 111.09 40.00 107.45 40.00 103.81 40.00 C 99.95 32.63 96.10 25.26 92.40 17.81 C 92.84 25.20 92.74 32.60 92.74 40.00 C 90.24 40.00 87.75 40.00 85.26 40.00 C 85.27 29.67 85.27 19.33 85.26 9.00 Z" />
<path fill="#18191b" opacity="1.00" d=" M 130.10 9.00 C 133.81 9.00 137.51 9.00 141.22 9.00 C 144.65 19.34 148.08 29.68 151.56 40.00 C 148.49 40.01 145.43 40.00 142.36 39.98 C 141.87 37.99 141.39 35.99 140.89 34.00 C 137.51 34.00 134.13 34.00 130.75 34.00 C 130.22 36.00 129.68 37.99 129.18 40.00 C 126.11 40.00 123.04 40.00 119.96 40.00 C 123.42 29.69 126.73 19.34 130.10 9.00 M 132.47 27.27 C 134.66 27.27 136.87 27.27 139.07 27.26 C 137.98 22.93 136.75 18.63 135.71 14.27 C 134.78 18.64 133.62 22.96 132.47 27.27 Z" />
<path fill="#18191b" opacity="1.00" d=" M 157.76 10.77 C 163.17 7.43 170.03 8.65 175.61 10.90 C 174.73 13.07 173.89 15.24 173.05 17.43 C 169.83 16.32 166.19 14.43 162.84 16.11 C 162.76 16.63 162.60 17.67 162.52 18.19 C 165.73 21.33 170.80 21.70 173.78 25.19 C 177.09 29.43 175.64 36.37 170.83 38.86 C 165.60 41.46 159.36 40.74 154.04 38.81 C 153.99 36.31 153.99 33.81 153.99 31.30 C 157.43 32.71 161.07 34.08 164.86 33.69 C 166.41 33.56 168.46 31.29 166.67 30.04 C 163.73 27.93 160.04 27.10 157.22 24.79 C 152.92 21.44 152.98 13.68 157.76 10.77 Z" />
<path fill="#18191b" opacity="1.00" d=" M 232.26 9.00 C 235.99 9.01 239.72 8.96 243.44 9.05 C 245.59 16.48 247.78 23.89 249.95 31.31 C 252.06 23.88 254.20 16.46 256.30 9.02 C 260.02 8.99 263.74 9.00 267.47 9.00 C 267.47 19.33 267.47 29.67 267.47 40.00 C 264.89 40.00 262.31 40.00 259.73 40.00 C 259.62 32.45 259.90 24.90 259.76 17.35 C 258.08 24.98 255.74 32.44 253.70 39.97 C 251.05 40.00 248.39 40.01 245.74 40.00 C 243.67 32.44 241.47 24.92 239.41 17.36 C 239.73 24.90 239.80 32.45 239.74 40.00 C 237.24 40.00 234.75 40.00 232.27 40.00 C 232.27 29.67 232.27 19.33 232.26 9.00 Z" />
<path fill="#18191b" opacity="1.00" d=" M 85.73 43.27 C 89.91 43.27 94.09 43.27 98.27 43.27 C 98.27 43.88 98.27 45.12 98.27 45.73 C 94.93 45.73 91.60 45.74 88.26 45.73 C 88.27 48.15 88.27 50.58 88.26 53.00 C 91.42 53.00 94.57 53.00 97.72 53.00 C 97.73 53.62 97.75 54.87 97.76 55.50 C 94.60 55.46 91.43 55.46 88.27 55.46 C 88.27 58.15 88.27 60.85 88.26 63.54 C 91.60 63.53 94.94 63.53 98.27 63.53 C 98.27 64.15 98.27 65.38 98.26 66.00 C 94.09 66.00 89.91 66.00 85.73 66.00 C 85.73 58.42 85.74 50.85 85.73 43.27 Z" />
<path fill="#18191b" opacity="1.00" d=" M 104.12 43.30 C 104.86 43.29 106.34 43.25 107.08 43.23 C 108.94 46.25 110.89 49.22 112.75 52.25 C 114.67 49.30 116.55 46.34 118.40 43.35 C 119.12 43.31 120.58 43.22 121.31 43.18 C 118.95 46.81 116.64 50.48 114.19 54.04 C 116.81 57.97 119.31 61.98 121.85 65.97 C 121.10 65.98 119.61 66.01 118.86 66.02 C 116.83 62.67 114.82 59.30 112.66 56.03 C 110.61 59.30 108.55 62.55 106.60 65.87 C 105.84 65.92 104.32 66.00 103.56 66.04 C 106.16 62.10 108.66 58.10 111.22 54.14 C 108.92 50.48 106.50 46.91 104.12 43.30 Z" />
<path fill="#18191b" opacity="1.00" d=" M 131.01 44.91 C 134.83 41.92 140.06 42.45 144.39 43.93 C 144.09 44.52 143.51 45.72 143.22 46.32 C 139.68 45.09 135.21 44.41 132.30 47.35 C 129.00 51.06 128.89 57.23 131.79 61.18 C 134.74 64.74 139.72 63.73 143.68 63.05 C 144.19 66.41 140.28 66.03 138.04 66.30 C 133.77 66.62 129.32 64.25 127.85 60.10 C 126.16 55.04 126.58 48.49 131.01 44.91 Z" />
<path fill="#18191b" opacity="1.00" d=" M 166.27 43.28 C 166.95 43.27 168.31 43.26 168.99 43.25 C 169.01 50.84 169.00 58.42 169.00 66.00 C 168.32 66.00 166.95 66.00 166.26 65.99 C 166.27 62.49 166.27 58.98 166.26 55.47 C 162.26 55.46 158.26 55.47 154.26 55.46 C 154.27 58.97 154.26 62.49 154.27 66.00 C 153.58 66.00 152.22 66.00 151.53 66.00 C 151.52 58.41 151.56 50.82 151.51 43.23 C 152.20 43.25 153.58 43.27 154.27 43.28 C 154.26 46.52 154.27 49.76 154.26 53.00 C 158.26 53.00 162.27 53.00 166.27 53.00 C 166.26 49.76 166.27 46.52 166.27 43.28 Z" />
<path fill="#18191b" opacity="1.00" d=" M 184.43 43.40 C 184.99 43.23 186.11 42.90 186.67 42.73 C 189.67 50.49 192.75 58.23 195.73 66.00 C 195.04 66.00 193.67 66.00 192.99 66.00 C 192.04 63.58 191.10 61.16 190.18 58.73 C 187.11 58.73 184.05 58.73 180.98 58.73 C 179.35 61.38 179.75 66.84 175.46 66.18 C 178.45 58.58 181.32 50.94 184.43 43.40 M 181.91 56.27 C 184.38 56.27 186.85 56.27 189.31 56.27 C 188.02 52.83 186.67 49.42 185.68 45.89 C 184.60 49.41 183.26 52.84 181.91 56.27 Z" />
<path fill="#18191b" opacity="1.00" d=" M 202.26 43.29 C 202.99 43.28 204.44 43.25 205.16 43.23 C 209.30 49.66 213.61 55.99 217.77 62.41 C 217.47 56.03 217.55 49.64 217.50 43.26 C 218.12 43.26 219.37 43.26 219.99 43.26 C 220.01 50.84 219.99 58.42 220.00 66.00 C 219.27 66.00 217.80 66.00 217.07 66.00 C 212.86 59.62 208.68 53.22 204.44 46.86 C 204.49 53.24 204.46 59.62 204.47 66.00 C 203.92 66.00 202.82 66.00 202.27 66.00 C 202.26 58.43 202.27 50.86 202.26 43.29 Z" />
<path fill="#18191b" opacity="1.00" d=" M 233.35 44.20 C 237.41 42.16 242.32 42.32 246.46 44.07 C 246.30 44.67 245.98 45.87 245.83 46.46 C 242.44 45.39 238.59 44.53 235.23 46.10 C 229.98 48.92 229.35 56.81 232.86 61.22 C 235.72 64.41 240.43 63.87 244.26 63.36 C 244.27 61.05 244.27 58.75 244.26 56.45 C 242.58 56.47 240.91 56.48 239.24 56.50 C 239.25 55.87 239.27 54.63 239.28 54.00 C 241.85 54.00 244.42 54.00 247.00 54.00 C 247.00 57.71 247.00 61.42 247.00 65.13 C 241.88 66.43 235.61 67.44 231.30 63.64 C 226.18 58.40 226.71 47.99 233.35 44.20 Z" />
<path fill="#18191b" opacity="1.00" d=" M 255.74 43.26 C 259.91 43.27 264.09 43.26 268.27 43.27 C 268.27 43.88 268.27 45.12 268.27 45.73 C 264.94 45.73 261.60 45.74 258.27 45.73 C 258.26 48.15 258.26 50.57 258.26 53.00 C 261.42 53.00 264.57 53.00 267.72 53.00 C 267.73 53.62 267.75 54.87 267.76 55.50 C 264.60 55.46 261.43 55.46 258.27 55.46 C 258.27 58.15 258.26 60.85 258.26 63.54 C 261.60 63.53 264.94 63.53 268.27 63.53 C 268.27 64.15 268.27 65.38 268.26 66.00 C 264.08 66.00 259.91 66.00 255.73 66.00 C 255.73 58.42 255.73 50.84 255.74 43.26 Z" />
</g>
</svg>
