<?xml version="1.0" ?>
<!DOCTYPE svg  PUBLIC '-//W3C//DTD SVG 1.1//EN'  'http://www.w3.org/Graphics/SVG/1.1/DTD/svg11.dtd'>
<svg enable-background="new 0 0 500 500" height="500px" id="Capa_1" version="1.1" viewBox="0 0 500 500" width="500px" xml:space="preserve" xmlns="http://www.w3.org/2000/svg" xmlns:xlink="http://www.w3.org/1999/xlink">
    <path d="M384,139.055c-4.041,20.417-7.518,39.018-11.423,57.528c-10.962,51.951-22.077,103.868-33.185,155.788  c-3.004,14.044-8.102,16.007-20.086,7.892c-19.162-12.976-38.447-25.777-57.357-39.105c-5.195-3.661-8.256-3.136-12.587,1.16  c-9.328,9.25-19.265,17.887-28.902,26.826c-6.885,6.387-10.748,5.919-13.746-2.929c-7.256-21.404-14.224-42.919-20.704-64.57  c-2.163-7.229-5.561-11.418-13.009-13.869c-16.469-5.416-32.578-11.93-48.811-18.062c-2.446-0.922-4.946-1.909-7.11-3.337  c-7.01-4.627-6.941-10.32,0.223-14.655c2.901-1.755,6.108-3.066,9.29-4.284c79.545-30.467,159.097-60.915,238.687-91.26  c3.609-1.376,7.711-2.716,11.373-2.286C379.398,134.215,381.807,137.412,384,139.055z M212.623,324.104  c0.554,0.052,1.106,0.104,1.66,0.152c1.216-9.342,2.616-18.668,3.586-28.037c0.676-6.531,3.008-11.669,7.935-16.412  c33.899-32.641,67.504-65.584,101.182-98.457c0.929-0.907,1.572-2.106,2.35-3.169c-11.352,6.207-21.91,13.09-32.475,19.968  c-31.721,20.658-63.454,41.297-95.153,61.992c-3.162,2.063-7.33,3.504-5.669,8.928C201.65,287.389,207.106,305.756,212.623,324.104z" fill="#030000"/>
</svg>